<svg id="visual" viewBox="0 0 1920 300" width="1920" height="300" xmlns="http://www.w3.org/2000/svg" xmlns:xlink="http://www.w3.org/1999/xlink" version="1.1"><path d="M0 96L40 93C80 90 160 84 240 85.7C320 87.3 400 96.7 480 99.3C560 102 640 98 720 93.3C800 88.7 880 83.3 960 84.8C1040 86.3 1120 94.7 1200 98.8C1280 103 1360 103 1440 100.3C1520 97.7 1600 92.3 1680 86C1760 79.7 1840 72.3 1880 68.7L1920 65L1920 301L1880 301C1840 301 1760 301 1680 301C1600 301 1520 301 1440 301C1360 301 1280 301 1200 301C1120 301 1040 301 960 301C880 301 800 301 720 301C640 301 560 301 480 301C400 301 320 301 240 301C160 301 80 301 40 301L0 301Z" fill="#06027b"></path><path d="M0 103L40 110C80 117 160 131 240 130.8C320 130.7 400 116.3 480 108C560 99.7 640 97.3 720 103.8C800 110.3 880 125.7 960 126.2C1040 126.7 1120 112.3 1200 108.2C1280 104 1360 110 1440 112.3C1520 114.7 1600 113.3 1680 107C1760 100.7 1840 89.3 1880 83.7L1920 78L1920 301L1880 301C1840 301 1760 301 1680 301C1600 301 1520 301 1440 301C1360 301 1280 301 1200 301C1120 301 1040 301 960 301C880 301 800 301 720 301C640 301 560 301 480 301C400 301 320 301 240 301C160 301 80 301 40 301L0 301Z" fill="#003ba0"></path><path d="M0 170L40 165.5C80 161 160 152 240 147.3C320 142.7 400 142.3 480 142C560 141.7 640 141.3 720 145.5C800 149.7 880 158.3 960 165.5C1040 172.7 1120 178.3 1200 177.8C1280 177.3 1360 170.7 1440 166C1520 161.3 1600 158.7 1680 156.2C1760 153.7 1840 151.3 1880 150.2L1920 149L1920 301L1880 301C1840 301 1760 301 1680 301C1600 301 1520 301 1440 301C1360 301 1280 301 1200 301C1120 301 1040 301 960 301C880 301 800 301 720 301C640 301 560 301 480 301C400 301 320 301 240 301C160 301 80 301 40 301L0 301Z" fill="#0068bd"></path><path d="M0 212L40 215.7C80 219.3 160 226.7 240 221.7C320 216.7 400 199.3 480 194.5C560 189.7 640 197.3 720 202.2C800 207 880 209 960 214C1040 219 1120 227 1200 220.3C1280 213.7 1360 192.3 1440 182.2C1520 172 1600 173 1680 182.5C1760 192 1840 210 1880 219L1920 228L1920 301L1880 301C1840 301 1760 301 1680 301C1600 301 1520 301 1440 301C1360 301 1280 301 1200 301C1120 301 1040 301 960 301C880 301 800 301 720 301C640 301 560 301 480 301C400 301 320 301 240 301C160 301 80 301 40 301L0 301Z" fill="#0091cf"></path><path d="M0 247L40 251.2C80 255.3 160 263.7 240 266.2C320 268.7 400 265.3 480 263C560 260.7 640 259.3 720 258C800 256.7 880 255.3 960 252.2C1040 249 1120 244 1200 239.8C1280 235.7 1360 232.3 1440 237.2C1520 242 1600 255 1680 255.2C1760 255.3 1840 242.7 1880 236.3L1920 230L1920 301L1880 301C1840 301 1760 301 1680 301C1600 301 1520 301 1440 301C1360 301 1280 301 1200 301C1120 301 1040 301 960 301C880 301 800 301 720 301C640 301 560 301 480 301C400 301 320 301 240 301C160 301 80 301 40 301L0 301Z" fill="#06b6d4"></path></svg>