<svg id="visual" viewBox="0 0 1920 300" width="1920" height="300" xmlns="http://www.w3.org/2000/svg" xmlns:xlink="http://www.w3.org/1999/xlink" version="1.1"><path d="M0 202L40 205C80 208 160 214 240 212.3C320 210.7 400 201.3 480 198.7C560 196 640 200 720 204.7C800 209.3 880 214.7 960 213.2C1040 211.7 1120 203.3 1200 199.2C1280 195 1360 195 1440 197.7C1520 200.3 1600 205.7 1680 212C1760 218.3 1840 225.7 1880 229.3L1920 233L1920 0L1880 0C1840 0 1760 0 1680 0C1600 0 1520 0 1440 0C1360 0 1280 0 1200 0C1120 0 1040 0 960 0C880 0 800 0 720 0C640 0 560 0 480 0C400 0 320 0 240 0C160 0 80 0 40 0L0 0Z" fill="#06027b"></path><path d="M0 195L40 188C80 181 160 167 240 167.2C320 167.3 400 181.7 480 190C560 198.3 640 200.7 720 194.2C800 187.7 880 172.3 960 171.8C1040 171.3 1120 185.7 1200 189.8C1280 194 1360 188 1440 185.7C1520 183.3 1600 184.7 1680 191C1760 197.3 1840 208.7 1880 214.3L1920 220L1920 0L1880 0C1840 0 1760 0 1680 0C1600 0 1520 0 1440 0C1360 0 1280 0 1200 0C1120 0 1040 0 960 0C880 0 800 0 720 0C640 0 560 0 480 0C400 0 320 0 240 0C160 0 80 0 40 0L0 0Z" fill="#003ba0"></path><path d="M0 128L40 132.5C80 137 160 146 240 150.7C320 155.3 400 155.7 480 156C560 156.3 640 156.7 720 152.5C800 148.3 880 139.7 960 132.5C1040 125.3 1120 119.7 1200 120.2C1280 120.7 1360 127.3 1440 132C1520 136.7 1600 139.3 1680 141.8C1760 144.3 1840 146.7 1880 147.8L1920 149L1920 0L1880 0C1840 0 1760 0 1680 0C1600 0 1520 0 1440 0C1360 0 1280 0 1200 0C1120 0 1040 0 960 0C880 0 800 0 720 0C640 0 560 0 480 0C400 0 320 0 240 0C160 0 80 0 40 0L0 0Z" fill="#0068bd"></path><path d="M0 86L40 82.3C80 78.7 160 71.3 240 76.3C320 81.3 400 98.7 480 103.5C560 108.3 640 100.7 720 95.8C800 91 880 89 960 84C1040 79 1120 71 1200 77.7C1280 84.3 1360 105.7 1440 115.8C1520 126 1600 125 1680 115.5C1760 106 1840 88 1880 79L1920 70L1920 0L1880 0C1840 0 1760 0 1680 0C1600 0 1520 0 1440 0C1360 0 1280 0 1200 0C1120 0 1040 0 960 0C880 0 800 0 720 0C640 0 560 0 480 0C400 0 320 0 240 0C160 0 80 0 40 0L0 0Z" fill="#0091cf"></path><path d="M0 51L40 46.8C80 42.7 160 34.3 240 31.8C320 29.3 400 32.7 480 35C560 37.3 640 38.7 720 40C800 41.3 880 42.7 960 45.8C1040 49 1120 54 1200 58.2C1280 62.3 1360 65.7 1440 60.8C1520 56 1600 43 1680 42.8C1760 42.7 1840 55.3 1880 61.7L1920 68L1920 0L1880 0C1840 0 1760 0 1680 0C1600 0 1520 0 1440 0C1360 0 1280 0 1200 0C1120 0 1040 0 960 0C880 0 800 0 720 0C640 0 560 0 480 0C400 0 320 0 240 0C160 0 80 0 40 0L0 0Z" fill="#06b6d4"></path></svg>